<svg xmlns="http://www.w3.org/2000/svg" width="556.56" height="650.832" viewBox="0 0 556.56 650.832">
  <defs>
    <style>
      .cls-1 {
        opacity: 0.06;
      }

      .cls-2 {
        fill-rule: evenodd;
      }
    </style>
  </defs>
  <g id="Layer_x0020_1" class="cls-1" transform="matrix(0.966, -0.259, 0.259, 0.966, -80.233, 117.405)">
    <g id="_1779819378576" transform="translate(83.06 0.011)">
      <path id="Path_528" data-name="Path 528" class="cls-2" d="M64.18,280.436V451.293c0,27.315,46.954.988,67.383-7.788l292.559-124.3c13.4-5.954,23.7-8.324,33.946-17.326,8.973-7.9,20.571-19.414,22.687-32l.31-208.132c-29.431,32.817-87.615,56.576-96.842,60.329L105.18,239.408C87.205,246.405,64.18,255.943,64.18,280.436Z" transform="translate(-59.166 112.462)"/>
      <path id="Path_529" data-name="Path 529" class="cls-2" d="M64,20.494c0,177.516-17.1,178.56,60.527,209.4,125.257,49.776,54.573,48.026,203.025-10.751C352.273,209.354,433,182.886,433,160.594c0-17.833-13.121-18.4-35.921-28.979l-222.3-95.488c-52.033-21.671-110.81-60.019-110.81-15.6Z" transform="translate(-62.403 -0.011)"/>
    </g>
  </g>
</svg>
