<svg xmlns="http://www.w3.org/2000/svg" width="185.201" height="216.571" viewBox="0 0 185.201 216.571">
  <defs>
    <style>
      .cls-1 {
        opacity: 0.06;
      }

      .cls-2 {
        fill-rule: evenodd;
      }
    </style>
  </defs>
  <g id="Layer_x0020_1" class="cls-1" transform="matrix(0.966, -0.259, 0.259, 0.966, -80.233, 53.405)">
    <g id="_1779819378576" transform="translate(83.06 0.011)">
      <path id="Path_528" data-name="Path 528" class="cls-2" d="M64.18,134.52v56.854c0,9.089,15.624.329,22.423-2.592l97.352-41.361c4.46-1.981,7.887-2.77,11.3-5.765,2.986-2.629,6.845-6.46,7.549-10.648l.1-69.258c-9.793,10.92-29.155,18.826-32.225,20.075L77.823,120.867C71.842,123.2,64.18,126.37,64.18,134.52Z" transform="translate(-62.512 -3.779)"/>
      <path id="Path_529" data-name="Path 529" class="cls-2" d="M62.935,6.827c0,59.07-5.69,59.418,20.141,69.681,41.681,16.563,18.16,15.981,67.559-3.577,8.225-3.258,35.089-12.066,35.089-19.484,0-5.934-4.366-6.122-11.953-9.643L99.8,12.029C82.485,4.818,62.926-7.943,62.926,6.836Z" transform="translate(-62.403 -0.011)"/>
    </g>
  </g>
</svg>
