<svg xmlns="http://www.w3.org/2000/svg" width="389.493" height="328.63" viewBox="0 0 389.493 328.63">
  <defs>
    <style>
      .cls-1 {
        fill: #f2f2f2;
      }

      .cls-2 {
        fill: #e6e6e6;
      }

      .cls-3 {
        fill: #fff;
      }

      .cls-4 {
        fill: #ccc;
      }

      .cls-5 {
        fill: #2f2e41;
      }

      .cls-6 {
        fill: #ffb6b6;
      }

      .cls-7 {
        fill: #ff5722;
      }

      .cls-8 {
        fill: #6c63ff;
      }

      .cls-9 {
        fill: #3f3d56;
      }

      .cls-10 {
        fill: #fff4e4;
      }

      .cls-11, .cls-12 {
        opacity: 0.15;
      }
    </style>
  </defs>
  <g id="Group_519" data-name="Group 519" transform="translate(0 0.001)">
    <path id="Path_477" data-name="Path 477" class="cls-1" d="M445.717,210.794q0,6.927-.582,13.713-.458,5.3-1.252,10.5-.843,5.508-2.065,10.884v0q-.8,3.538-1.755,7.018a156.279,156.279,0,0,1-6.885,19.793q-.892,2.1-1.842,4.172a156.373,156.373,0,0,1-8.038,15.258,159.241,159.241,0,0,1-30.71,37.112q-1.958,1.741-3.969,3.424a158.61,158.61,0,1,1-2.887-246.1q1.97,1.561,3.891,3.193a159.74,159.74,0,0,1,17.443,17.265h0a157.991,157.991,0,0,1,38.649,103.765Z" transform="translate(-128.499 -52.185)"/>
    <path id="Path_478" data-name="Path 478" class="cls-2" d="M206.1,440.957c-15.109-8.993-26.513-25.8-25.033-43.319a81.012,81.012,0,0,0,50.942,22.327c7.361.435,15.594.152,21.013,5.154,3.372,3.112,4.941,7.8,5.2,12.378s-.66,9.138-1.573,13.635l.314,1.1C239.378,452.3,221.208,449.95,206.1,440.957Z" transform="translate(-159.278 -254.951)"/>
    <path id="Path_479" data-name="Path 479" class="cls-3" d="M181.042,397.249a69.243,69.243,0,0,0,28.78,31.411,29.817,29.817,0,0,0,8.687,3.438,17.1,17.1,0,0,0,8.973-.711c2.7-.91,5.354-2.154,8.227-2.392a10.472,10.472,0,0,1,8.035,2.964c2.7,2.5,4.33,5.827,5.816,9.132,1.65,3.67,3.3,7.508,6.468,10.146.383.32-.135.9-.518.576-5.5-4.591-6.4-12.281-10.8-17.688-2.052-2.523-4.878-4.443-8.234-4.393-2.935.044-5.674,1.324-8.4,2.27a18.249,18.249,0,0,1-8.747,1.022,27.566,27.566,0,0,1-8.787-3.091,67.179,67.179,0,0,1-16.727-12.69A70.471,70.471,0,0,1,180.3,397.485c-.207-.452.533-.686.738-.236Z" transform="translate(-158.885 -254.581)"/>
    <path id="Path_480" data-name="Path 480" class="cls-3" d="M222.66,467.681a10.389,10.389,0,0,1-13.142,2.873c-.439-.236-.094-.93.346-.694a9.62,9.62,0,0,0,12.219-2.7C222.384,466.765,222.959,467.286,222.66,467.681Z" transform="translate(-175.935 -295.676)"/>
    <path id="Path_481" data-name="Path 481" class="cls-3" d="M281.312,462.627a20.023,20.023,0,0,0-6.972-12.819c-.382-.321.136-.9.518-.576a20.827,20.827,0,0,1,7.228,13.354c.061.5-.713.534-.774.041Z" transform="translate(-214.023 -285.179)"/>
    <path id="Path_482" data-name="Path 482" class="cls-3" d="M201.7,423.187a5.881,5.881,0,0,0,1.978-5.217c-.067-.495.707-.533.774-.041a6.59,6.59,0,0,1-2.176,5.777.4.4,0,0,1-.547.029.389.389,0,0,1-.029-.547Z" transform="translate(-171.408 -266.655)"/>
    <path id="Path_483" data-name="Path 483" class="cls-2" d="M285.168,315.46c.051.308.1.616.158.926a77.438,77.438,0,0,0,3.1,12.173c.1.308.207.619.316.924a81.642,81.642,0,0,0,15.111,25.984,79.293,79.293,0,0,0,8.547,8.489c4.227,3.6,9.1,7.172,11.806,11.824a13.6,13.6,0,0,1,.773,1.5l-11.51,26.255c-.056.047-.106.1-.163.143l-.412,1.069c-.167-.124-.338-.255-.505-.379-.1-.071-.192-.148-.289-.22-.064-.049-.128-.1-.189-.14-.021-.016-.043-.033-.058-.047-.061-.041-.113-.085-.167-.124q-1.435-1.1-2.86-2.225c-.006,0-.006,0-.009-.011a116.578,116.578,0,0,1-19.65-19.326c-.169-.217-.344-.436-.508-.666a75.657,75.657,0,0,1-6.712-10.362,66.885,66.885,0,0,1-2.878-6.125,55.619,55.619,0,0,1-3.96-16.933c-.844-11.6,2.03-23.333,9.479-32.065C284.783,315.9,284.971,315.681,285.168,315.46Z" transform="translate(-214.472 -206.716)"/>
    <path id="Path_484" data-name="Path 484" class="cls-3" d="M297.015,315.225a69.243,69.243,0,0,0,4.068,42.408,29.819,29.819,0,0,0,4.866,7.975,17.1,17.1,0,0,0,7.592,4.835c2.7.9,5.572,1.5,8.009,3.044a10.472,10.472,0,0,1,4.631,7.2c.644,3.622-.051,7.259-.855,10.793-.892,3.923-1.881,7.984-.945,12,.113.486-.647.634-.761.148-1.629-6.979,2.283-13.659,2.027-20.625-.12-3.25-1.22-6.484-3.93-8.465-2.37-1.732-5.328-2.359-8.073-3.245a18.25,18.25,0,0,1-7.6-4.451,27.567,27.567,0,0,1-5.155-7.759,67.179,67.179,0,0,1-5.716-20.2,70.471,70.471,0,0,1,1.108-23.911c.107-.486.838-.227.732.256Z" transform="translate(-226.012 -206.276)"/>
    <path id="Path_485" data-name="Path 485" class="cls-3" d="M287.708,399.7a10.389,10.389,0,0,1-12.223-5.618c-.209-.453.485-.8.694-.345a9.62,9.62,0,0,0,11.381,5.2c.479-.137.625.624.148.761Z" transform="translate(-214.751 -252.539)"/>
    <path id="Path_486" data-name="Path 486" class="cls-3" d="M336.87,427.831a20.023,20.023,0,0,0,2.151-14.433c-.112-.486.649-.634.761-.148a20.827,20.827,0,0,1-2.269,15.014C337.263,428.7,336.622,428.261,336.87,427.831Z" transform="translate(-250.771 -263.939)"/>
    <path id="Path_487" data-name="Path 487" class="cls-3" d="M295.478,350.132a5.88,5.88,0,0,0,4.721-2.975c.244-.436.885,0,.643.433a6.59,6.59,0,0,1-5.215,3.3.4.4,0,0,1-.454-.306.389.389,0,0,1,.306-.454Z" transform="translate(-226.325 -225.215)"/>
    <path id="Path_488" data-name="Path 488" class="cls-4" d="M366.912,140.826,386.325,368.08,347.5,371V143.718C352.125,140.656,358.767,140.177,366.912,140.826Z" transform="translate(-257.043 -104.066)"/>
    <path id="Path_489" data-name="Path 489" class="cls-4" d="M598.912,140.826,579.5,368.08,618.325,371V143.718C613.7,140.656,607.058,140.177,598.912,140.826Z" transform="translate(-393.217 -104.066)"/>
    <path id="Path_490" data-name="Path 490" class="cls-4" d="M473.4,378.99H349.965a7.474,7.474,0,0,1-7.466-7.466V145.651a7.474,7.474,0,0,1,7.466-7.466H473.4a7.474,7.474,0,0,1,7.465,7.466V371.524A7.474,7.474,0,0,1,473.4,378.99ZM349.965,140.663a4.993,4.993,0,0,0-4.988,4.988V371.524a4.993,4.993,0,0,0,4.987,4.988H473.4a4.993,4.993,0,0,0,4.987-4.988V145.651a4.993,4.993,0,0,0-4.987-4.987Z" transform="translate(-254.108 -102.664)"/>
    <rect id="Rectangle_626" data-name="Rectangle 626" class="cls-4" width="136" height="3" transform="translate(90 72.999)"/>
    <rect id="Rectangle_627" data-name="Rectangle 627" class="cls-4" width="136" height="3" transform="translate(90 113.999)"/>
    <rect id="Rectangle_628" data-name="Rectangle 628" class="cls-4" width="2.478" height="112.761" transform="translate(131.25 36.761)"/>
    <rect id="Rectangle_629" data-name="Rectangle 629" class="cls-4" width="2.478" height="112.761" transform="translate(181.424 36.761)"/>
    <path id="Path_491" data-name="Path 491" class="cls-4" d="M464.891,705.989H302.151a11.152,11.152,0,1,1,0-22.3H464.891a11.152,11.152,0,1,1,0,22.3Z" transform="translate(-223.88 -422.848)"/>
    <rect id="Rectangle_630" data-name="Rectangle 630" class="cls-4" width="136" height="8" transform="translate(90 143.999)"/>
    <path id="Path_492" data-name="Path 492" class="cls-5" d="M393.793,413.856l-.171-.083c-9.207-4.448-21.265-4.444-39.1.015l-.19.048-.057-.188c-1.886-6.185-4.023-13.19-.009-16.637.056-10.113,8.928-18.326,19.824-18.326s19.765,8.208,19.824,18.319c5.972,4.566,3.126,11.313-.028,16.688Z" transform="translate(-259.68 -243.827)"/>
    <path id="Path_493" data-name="Path 493" class="cls-6" d="M528.9,401.569a5.718,5.718,0,0,1-7.7,4.191l-32.539,32.7-2.9-10.153,32.317-30.365a5.749,5.749,0,0,1,10.827,3.628Z" transform="translate(-338.192 -253.196)"/>
    <path id="Path_494" data-name="Path 494" class="cls-7" d="M394.666,449.586s-2.952,6.69,4.332,10.816,32.743-1.574,36.874-2.37,19.56-23.885,19.56-23.885l-2.182-11.324-20.462,17.763Z" transform="translate(-284.381 -269.733)"/>
    <path id="Path_495" data-name="Path 495" class="cls-6" d="M382.216,576.962l.413,7.848s-1.219,6.952-.216,8.452,28.149,1.681,28.149,1.681,1.794-9.672,3.34-18.138Z" transform="translate(-277.303 -360.114)"/>
    <path id="Path_496" data-name="Path 496" class="cls-6" d="M436.866,742.007l5.677-1.147-1.625-22.93-8.378,1.692Z" transform="translate(-253.882 -421.394)"/>
    <path id="Path_497" data-name="Path 497" class="cls-6" d="M449.4,669.429l5.277-2.373-6.846-21.939-7.789,3.5Z" transform="translate(-258.287 -378.656)"/>
    <path id="Path_498" data-name="Path 498" class="cls-5" d="M462.676,645.221l-9.937,5.627-24.507-39.38c-17.2,11.59-34.027,17.141-50.987,20.1-5.734,1.021-11.58.5-12.681-5.332q-.077-.409-.123-.823c-.677-6.375,7.252-14.545,8.26-22.345l21.7-1.3,2.676,3.431,25.1-15.43A10.773,10.773,0,0,1,437,593.517q.249.41.462.84Z" transform="translate(-266.964 -366.809)"/>
    <path id="Path_499" data-name="Path 499" class="cls-5" d="M450.589,688.557l-11.37,1.057L418.6,647.45c-20.444,3.516-39.731,4.642-56.413.389a10.783,10.783,0,0,1-7.712-13.026q.1-.4.225-.8c2-6.092,7.223-10.4,11.34-17.1l30.077.457-3.359,11.591,29.217-3.781a10.774,10.774,0,0,1,11.986,9.5q.059.476.077.955Z" transform="translate(-260.959 -383.654)"/>
    <circle id="Ellipse_10" data-name="Ellipse 10" class="cls-6" cx="12.213" cy="12.213" r="12.213" transform="translate(104.444 139.609)"/>
    <path id="Path_500" data-name="Path 500" class="cls-7" d="M379.818,460l11.2,1.317a2.285,2.285,0,0,1,1.965,1.782l1.781,8.149,11.1,13.073a27.411,27.411,0,0,1,2.491,15.945c-1.495,8.471-2.152,14.765-2.152,14.765s-29.779,11.165-30.776,9.67-1.32-8.285-1.32-8.285l-3.986-44.348s4.485-7.474,6.976-7.474C378.705,464.537,378.5,460.919,379.818,460Z" transform="translate(-270.321 -291.553)"/>
    <ellipse id="Ellipse_11" data-name="Ellipse 11" class="cls-8" cx="2.843" cy="3.412" rx="2.843" ry="3.412" transform="translate(133.342 219.378)"/>
    <path id="Path_501" data-name="Path 501" class="cls-5" d="M564.693,807.949l8.655-4.337,1.631,3.805,10.944,2.212a2.586,2.586,0,0,1,.507,4.912l-10.574,4.533-3.436-2.983.9,4.069-3.987,1.709Z" transform="translate(-384.526 -493.24)"/>
    <path id="Path_502" data-name="Path 502" class="cls-5" d="M585.2,745.365l8.577-4.489,1.7,3.776,10.981,2.02a2.586,2.586,0,0,1,.593,4.9l-10.493,4.718-3.488-2.922.973,4.053-3.956,1.779Z" transform="translate(-396.565 -456.417)"/>
    <path id="Path_503" data-name="Path 503" class="cls-5" d="M381.1,389.47a15.629,15.629,0,0,1-9.015-2.844l-.088-.062v-.107a11.785,11.785,0,0,1,11.772-11.772h4.957A11.785,11.785,0,0,1,400.5,386.456a2.741,2.741,0,0,1-2.681,2.728l-16.438.283C381.288,389.469,381.2,389.47,381.1,389.47Z" transform="translate(-271.424 -241.479)"/>
    <ellipse id="Ellipse_12" data-name="Ellipse 12" class="cls-5" cx="3.304" cy="4.543" rx="3.304" ry="4.543" transform="translate(122.498 136.501) rotate(-30)"/>
    <ellipse id="Ellipse_13" data-name="Ellipse 13" class="cls-5" cx="4.543" cy="3.304" rx="4.543" ry="3.304" transform="translate(97.3 138.832) rotate(-45)"/>
    <path id="Path_504" data-name="Path 504" class="cls-9" d="M620.611,662.185h-12.19a1.888,1.888,0,0,0-1.445.668,2.891,2.891,0,1,0,.746,5.441l1.011,3.285a1.9,1.9,0,0,0,1.821,1.345h7.926a1.9,1.9,0,0,0,1.82-1.345l2.132-6.93a1.9,1.9,0,0,0-1.82-2.465Zm-14.149,5.576a2.065,2.065,0,0,1,0-4.13c.038,0,.073.009.11.011a1.883,1.883,0,0,0,.029,1.008l.872,2.835a2.039,2.039,0,0,1-1.011.276Z" transform="translate(-407.341 -410.229)"/>
    <path id="Path_505" data-name="Path 505" class="cls-6" d="M446.427,592.648a5.718,5.718,0,0,1-6.225-6.176l-40.659-21.789,8.893-5.694L446.8,581.235a5.749,5.749,0,0,1-.37,11.413Z" transform="translate(-287.59 -349.657)"/>
    <path id="Path_506" data-name="Path 506" class="cls-7" d="M370.962,475.789s-7.256-.909-9.118,7.253,10.9,30.915,12.85,34.644,28.493,11.884,28.493,11.884l10.221-5.339-22.887-14.505Z" transform="translate(-265.354 -300.805)"/>
    <path id="Path_507" data-name="Path 507" class="cls-4" d="M373.043,342h2.478a4.544,4.544,0,0,1,4.544,4.544H368.5A4.543,4.543,0,0,1,373.043,342Z" transform="translate(-216.294 -200.739)"/>
    <circle id="Ellipse_14" data-name="Ellipse 14" class="cls-7" cx="24.552" cy="24.552" r="24.552" transform="translate(53.613 7.386)"/>
    <path id="Path_508" data-name="Path 508" class="cls-2" d="M386.147,100.1c-6.5-6.816-14.044-13.034-22.978-16.32a36.932,36.932,0,0,0-7.7-1.934c-.021,0-.041,0-.062,0a1.138,1.138,0,0,0-.13-.025,29.626,29.626,0,0,0-11,.664,30.381,30.381,0,0,0-5.12,1.784,44.77,44.77,0,0,0-4.8,2.723,31.248,31.248,0,0,1-10.616,3.961,35.715,35.715,0,0,1-5.7.56,13.773,13.773,0,0,0-4.8.69,11.513,11.513,0,0,0-7.012,7.592.747.747,0,0,0,.332.816c.425.3.84.65,1.287.922a4.014,4.014,0,0,0,1.257.343q1.066.225,2.134.437,3.936.78,7.9,1.381,8.031,1.216,16.148,1.713a179.8,179.8,0,0,0,32.5-.977,180.418,180.418,0,0,0,18.032-3.119.729.729,0,0,0,.319-1.207Z" transform="translate(-232.809 -69.438)"/>
    <path id="Path_509" data-name="Path 509" class="cls-2" d="M239.623,163.033a36.932,36.932,0,0,0-7.7-1.934c-.021,0-.041,0-.062,0a1.134,1.134,0,0,0-.13-.025,29.626,29.626,0,0,0-11,.664,30.381,30.381,0,0,0-5.12,1.784,44.774,44.774,0,0,0-4.8,2.723A31.248,31.248,0,0,1,200.2,170.2a35.716,35.716,0,0,1-5.7.56,13.773,13.773,0,0,0-4.8.69,11.513,11.513,0,0,0-7.011,7.592.747.747,0,0,0,.332.816c.425.3.84.65,1.287.922a4.014,4.014,0,0,0,1.257.343q1.066.225,2.134.437,3.936.78,7.9,1.381,8.03,1.216,16.148,1.713a179.8,179.8,0,0,0,32.5-.977,180.428,180.428,0,0,0,18.032-3.119.729.729,0,0,0,.319-1.207C256.1,172.537,248.557,166.318,239.623,163.033Z" transform="translate(-160.293 -115.958)"/>
    <path id="Path_510" data-name="Path 510" class="cls-9" d="M572.722,521.852l-18.881-24.8-14.9,8.424,31.569,37.489Z" transform="translate(-316.336 -291.746)"/>
    <path id="Path_511" data-name="Path 511" class="cls-9" d="M777.764,431.733a136.031,136.031,0,0,0,4.8,30.735q-.892,2.1-1.842,4.172a156.353,156.353,0,0,1-8.038,15.258,159.242,159.242,0,0,1-30.71,37.112q-1.958,1.741-3.969,3.424a74.4,74.4,0,0,1-13.4-34.142c-.207-1.52-.376-3.057-.5-4.585V483.7a97.8,97.8,0,0,1-.3-11.169c0-.3.012-.6.025-.9.145-3.982.5-7.972,1.045-11.925v0c.062-.454.124-.909.194-1.363.2-1.363.421-2.726.665-4.081a165.289,165.289,0,0,1,5.923-23.044v0c.07-.219.14-.434.219-.648.273-.818.549-1.627.834-2.437a1.412,1.412,0,0,1,.066-.186q.551-1.586,1.128-3.147.155-.434.322-.867c.434-1.161.876-2.313,1.326-3.449.14-.363.285-.727.43-1.086.112-.277.219-.553.335-.826v0q.985-2.435,2-4.775c1.888-4.387,3.829-8.513,5.721-12.317l0,0a226.3,226.3,0,0,1,14.989-25.976l26.8,8.674c-3.2,5.671-5.671,14.035-7.026,23.9a133.448,133.448,0,0,0-1.028,23.667Z" transform="translate(-477.886 -241.948)"/>
    <path id="Path_512" data-name="Path 512" class="cls-10" d="M668.985,488.489c-.157-.368-.335-.727-.516-1.086a20.346,20.346,0,0,0-3.6-4.957c-.215-.219-.438-.438-.669-.644a20.123,20.123,0,0,0-18.785-4.651l-.016.008-.124.033.029.14a11.676,11.676,0,0,0,.537,1.921c.062.169.132.33.2.492.029.074.066.14.1.215,0,0,0,0,0,0s0,.008,0,.012c.078.153.153.31.235.458-.169-.161-.33-.326-.487-.5s-.293-.322-.434-.487a13.69,13.69,0,0,1-1.3-1.793l-.066-.112-.116.045a20.287,20.287,0,0,0-4.428,2.168l-.149.1a9.005,9.005,0,0,1-7.232,1.181,14.34,14.34,0,0,0-11.4,1.863,14.168,14.168,0,0,0-2.966,2.586c-.074.087-.149.178-.223.264-.157.19-.306.384-.45.582a14.152,14.152,0,0,0-2.755,7.117l-.008.095.078.054a12.274,12.274,0,0,0,4.643,1.933,13.893,13.893,0,0,1-3.156.078h0a12.784,12.784,0,0,1-1.421-.2l-.087-.016h0l-.107-.021.016.2a14.208,14.208,0,0,0,2.3,7.084l.041.058a.564.564,0,0,1,.041.066,14.867,14.867,0,0,1,1.454,2.854,13.6,13.6,0,0,1,.611,7.811,14.252,14.252,0,0,0,12.833,17.4c.343.029.69.045,1.037.045a14.242,14.242,0,0,0,5.77-1.2l.066-.025.016-.074a13.979,13.979,0,0,1,1.462-3.214,9.738,9.738,0,0,0-.306,2.425v.273l.235-.136c.2-.12.409-.248.595-.368a14.55,14.55,0,0,0,3-2.61c.343-.4.69-.781,1.053-1.165l0,0c.706-.752,1.454-1.487,2.23-2.189a41.7,41.7,0,0,1,5.287-4.035,45.561,45.561,0,0,1,5.836-3.172h0c.227-.107.458-.211.686-.31a20.131,20.131,0,0,0,2.9-1.553c.033-.021.062-.037.091-.058a20.153,20.153,0,0,0,7.4-24.989Z" transform="translate(-413.654 -301.228)"/>
    <path id="Path_513" data-name="Path 513" class="cls-11" d="M625.458,570.039a14.221,14.221,0,0,0-.256,1.522,14.427,14.427,0,0,1-.323-7.508c.086-.381.15-.766.2-1.153A13.541,13.541,0,0,1,625.458,570.039Z" transform="translate(-419.648 -351.953)"/>
    <path id="Path_514" data-name="Path 514" class="cls-11" d="M621.113,534.163a13.891,13.891,0,0,1-3.689.018,14.278,14.278,0,0,1-.829-1.877,12.106,12.106,0,0,0,4.518,1.86Z" transform="translate(-414.99 -333.994)"/>
    <path id="Path_515" data-name="Path 515" class="cls-11" d="M616.141,522.165a14.359,14.359,0,0,0-.893,3.6,14.192,14.192,0,0,1-.662-3.622l-.01-.2.195.038a13.778,13.778,0,0,0,1.37.187Z" transform="translate(-413.805 -327.911)"/>
    <path id="Path_516" data-name="Path 516" class="cls-11" d="M621.111,482.608a14.3,14.3,0,0,1,11.389-1.865,8.99,8.99,0,0,0,7.236-1.179l.149-.1a20.226,20.226,0,0,1,4.425-2.174l.119-.041.065.108a13.681,13.681,0,0,0,2.221,2.778,10.49,10.49,0,0,1-1.081-3.1l-.028-.143.141-.037a20.124,20.124,0,0,1,25.244,20.528,20.127,20.127,0,0,0-24.665-14.542l-.141.037.028.143a10.491,10.491,0,0,0,1.081,3.1,13.681,13.681,0,0,1-2.221-2.778l-.065-.108-.119.041a20.225,20.225,0,0,0-4.425,2.174l-.149.1a8.99,8.99,0,0,1-7.236,1.179,14.273,14.273,0,0,0-16.439,7.611,17.305,17.305,0,0,1-1.856-1.037l-.081-.051.01-.1A14.216,14.216,0,0,1,621.111,482.608Z" transform="translate(-413.88 -301.054)"/>
    <path id="Path_517" data-name="Path 517" class="cls-10" d="M762.587,166.58l-.392-.26-.285.372a33.8,33.8,0,0,0-5.2,9.207,44.092,44.092,0,0,1,1.991-11.272l.124-.384-.355-.2a65.131,65.131,0,0,0-14.663-6.08l-.558-.149a28.939,28.939,0,0,1-18.236-14.985,46,46,0,0,0-46.026-24.985h0c-.1.008-.2.021-.3.033-.169.017-.335.037-.5.058-.339.045-.669.091-1,.14-.281.041-.566.087-.847.136-.149.021-.293.045-.438.074s-.293.05-.438.078h0a45.54,45.54,0,0,0-8.12,2.334h0v0l-.665.26q-1.029.421-2.04.892c-.153.07-.3.145-.454.215-.041.021-.087.041-.128.066-.434.207-.863.421-1.289.648-.062.029-.124.062-.186.095l-.4.211q-1.307.706-2.569,1.5c-.07.041-.136.083-.207.128l-.227.149c-.045.025-.091.058-.136.087-.128.078-.252.161-.376.248-.248.161-.5.326-.739.5s-.5.347-.748.525l-.248.178.045.306c.041.252.078.5.124.752s.083.492.128.735c.07.409.149.814.227,1.206.054.26.1.516.161.768s.111.52.173.781c.12.537.248,1.057.384,1.57.066.256.136.512.211.764.041.153.083.306.128.454l.1.31c.008.033.017.07.029.107a.988.988,0,0,0,.033.1q.068.229.136.446c.025.078.05.157.078.231.058.178.12.359.182.533.066.2.136.4.207.591.016.05.033.095.05.145s.025.074.041.112.033.087.05.128c.07.186.14.376.215.562.025.066.05.136.078.2a29.579,29.579,0,0,0,2.458,4.833q-1.6-1.375-3.09-2.916a44.47,44.47,0,0,1-4.213-5.085c-.1-.14-.206-.285-.3-.43-.194-.277-.384-.553-.57-.834s-.388-.591-.574-.888c-.124-.2-.248-.4-.368-.6s-.231-.376-.339-.566l-.322-.553h0v0l-.454.446c-.182.178-.364.355-.541.533a45.9,45.9,0,0,0-11.677,20.095l-.062.227-.062.235c-.12.421-.24.83-.368,1.247v0c-.124.413-.256.826-.4,1.231-.128.384-.26.764-.4,1.144q-.068.192-.149.384c-.087.248-.182.492-.277.739-.045.112-.091.227-.136.339-.112.273-.223.545-.335.814-.017.041-.037.087-.058.128-.033.083-.07.165-.1.244-.087.2-.178.4-.264.6-.062.128-.12.26-.178.388-.025.058-.054.116-.078.173-.153.33-.31.657-.475.979-.186.38-.376.76-.578,1.132-.178.347-.364.686-.558,1.024-.335.6-.686,1.194-1.049,1.772-.14.223-.281.446-.425.669-.033.054-.066.107-.1.157-.12.194-.244.38-.372.57-.087.128-.173.256-.26.38-.145.223-.3.438-.454.648-.041.066-.087.128-.132.19-.231.322-.463.636-.7.95-.008,0-.008.008-.012.012s-.008,0-.012.008c-.1.136-.207.273-.314.4-.14.194-.293.384-.446.57-.248.314-.508.632-.772.942-.008.008-.012.017-.021.021a44,44,0,0,1-4.436,4.51c-.029.025-.05.05-.078.07-.223.194-.446.388-.677.578l-.285.235c-.157.132-.318.264-.475.384a.327.327,0,0,1-.062.05c-.14.116-.277.223-.417.33-.169.136-.339.264-.512.392q-1.227.929-2.52,1.755c-.128.087-.264.173-.4.256-.078.05-.157.1-.231.14-.314.194-.628.384-.942.566s-.636.363-.954.537c-.682.372-1.355.76-2.011,1.165-.33.207-.661.413-.987.624q-1.945,1.264-3.746,2.705a45.748,45.748,0,0,0-3.449,3.061q-.2.2-.409.409c-.273.268-.537.541-.789.814-.4.417-.793.847-1.177,1.28a46.422,46.422,0,0,0-5.353,7.443,43.754,43.754,0,0,0-2.1,4.085c-.475,1.045-.909,2.115-1.3,3.2q-.39,1.084-.731,2.189c-.112.368-.219.739-.322,1.111-.351,1.26-.644,2.532-.884,3.808q-.291,1.537-.471,3.077c-.062.516-.112,1.033-.157,1.545q-.159,1.888-.163,3.78a45.98,45.98,0,0,0,1.369,11.226q.3,1.214.673,2.416c.124.4.256.8.388,1.194q.5,1.487,1.111,2.945.366.874.768,1.735a46.1,46.1,0,0,0,6.477,10.144q.638.762,1.318,1.5s0,0,0,0a45.8,45.8,0,0,0,3.565,3.486h0q.75.663,1.524,1.285s0,0,0,0c.52.421,1.045.826,1.582,1.218q.4.291.818.582.812.576,1.656,1.111h0q.843.545,1.71,1.041c1.161.665,2.35,1.289,3.573,1.855l.206.1.211-.1a45.206,45.206,0,0,1,6.047-2.218c.454-.132.913-.252,1.367-.368q1.722-.428,3.47-.719a28.544,28.544,0,0,0-3.28,1.929c-.814.549-1.615,1.148-2.42,1.809-.268.219-.537.446-.805.677l-.669.578.839.277c.306.1.611.2.917.289.417.132.83.252,1.235.363q1.326.372,2.668.657l.653.136c.425.083.855.165,1.285.24a.282.282,0,0,0,.054.008c.446.074.9.145,1.342.207q1.245.18,2.491.285c.091.012.182.017.277.021.2.017.4.033.6.045.446.029.9.05,1.346.066.033,0,.062,0,.1,0,.227.008.454.017.682.021,0,0,0,0,0,0,.227,0,.454.008.682.008h1.256c.235,0,.471,0,.71,0,.33,0,.665,0,1,.008.087,0,.178,0,.269,0,.529.008,1.057.021,1.586.033.033,0,.066,0,.1,0,.529.017,1.057.033,1.586.058.116,0,.231.008.351.017q.762.031,1.524.074c.145.008.293.021.442.029.384.021.772.045,1.157.074.227.012.45.029.677.05.917.07,1.83.149,2.747.24.306.025.611.058.917.091q1.227.13,2.462.285c.368.041.735.091,1.1.14.041,0,.083.008.124.017.454.062.9.124,1.359.19.3.041.595.087.892.132s.611.091.917.145c.165.025.33.054.5.083.4.062.8.128,1.2.2a.957.957,0,0,1,.107.017c.851.149,1.706.306,2.557.475.5.1,1,.194,1.491.3.388.078.776.161,1.165.244.066.012.132.029.2.045a.212.212,0,0,0,.045.008c.587.128,1.177.26,1.764.4q3.054.706,6.1,1.57c.467.128.933.264,1.4.4l.586.173c.4.12.805.24,1.21.368.355.107.714.219,1.07.335.223.07.446.14.669.215.347.107.694.219,1.037.339.293.091.582.186.872.289.413.136.83.277,1.243.425.12.041.244.083.364.128.5.173,1.008.351,1.512.537s.983.359,1.47.541c.339.128.677.252,1.012.384.376.145.752.289,1.123.438.537.211,1.078.425,1.615.644.5.2.987.4,1.483.611.091.037.186.074.277.116.43.178.859.363,1.285.549.277.116.549.235.822.355q1.784.781,3.565,1.615h0c.744.351,1.5.686,2.259,1,.178.074.355.149.537.219.3.128.607.248.913.372.2.078.4.157.6.231.293.116.591.227.888.335.314.116.624.231.942.339.111.041.223.078.339.12.368.124.735.248,1.107.368l.116.037c.388.124.776.248,1.169.363a.815.815,0,0,0,.095.029c.421.128.851.252,1.276.372.628.173,1.26.339,1.892.492.116.029.231.058.347.083.339.083.673.161,1.012.235.359.083.723.157,1.082.231s.727.149,1.086.215c.194.037.388.074.578.107l.508.087c.351.062.7.116,1.057.173a.08.08,0,0,1,.029,0c.4.062.8.12,1.2.169.384.054.768.1,1.152.145l.244.025c.318.037.636.074.954.1l.273.025c.314.029.628.058.942.078a1.465,1.465,0,0,0,.19.012c.281.025.562.045.843.058.2.017.392.025.591.037l.306.012c.273.017.545.025.822.033.335.012.669.021,1,.029.4.008.805.012,1.206.012h.008c.392,0,.789,0,1.181-.012h.149l.434-.012c.223,0,.446-.012.665-.021.421-.017.839-.037,1.256-.062.165-.008.335-.021.5-.029.074,0,.153-.012.227-.017.26-.017.516-.033.777-.054s.541-.045.81-.074c.347-.033.694-.07,1.041-.107.273-.029.545-.062.814-.095a.845.845,0,0,0,.107-.017c.26-.029.52-.062.776-.1.306-.041.607-.087.909-.132l.095-.012c.52-.083,1.045-.165,1.57-.26.549-.1,1.1-.207,1.644-.318.2-.041.4-.087.6-.128.112-.025.227-.045.335-.07.169-.037.335-.074.5-.116.029,0,.062-.012.091-.017.231-.05.458-.107.69-.165.463-.112.917-.227,1.371-.351.2-.05.4-.1.6-.157l.169-.05q1.258-.353,2.495-.748c.364-.116.723-.235,1.082-.363q1.159-.4,2.3-.834c.2-.074.4-.157.607-.235.3-.12.595-.24.888-.359.264-.112.529-.223.8-.339.132-.054.264-.112.4-.169.4-.173.793-.351,1.185-.529.264-.124.525-.244.785-.368.413-.2.822-.4,1.231-.6.1-.054.2-.107.3-.157.26-.132.52-.268.785-.4.417-.223.834-.446,1.247-.677.141-.074.277-.153.417-.231q.682-.384,1.351-.781,1.481-.886,2.92-1.85c.24-.157.479-.322.715-.483.446-.306.884-.62,1.322-.933.045-.033.087-.066.132-.1.219-.161.438-.322.657-.487.454-.343.9-.69,1.355-1.045.008,0,.021-.017.033-.025.2-.161.4-.322.6-.483.615-.5,1.223-1.008,1.817-1.532.293-.252.582-.512.867-.772.215-.194.43-.388.64-.587.425-.4.843-.8,1.256-1.2.207-.2.409-.4.615-.611s.409-.413.611-.624c.07-.07.14-.145.211-.219.207-.219.413-.442.62-.661.178-.19.351-.388.529-.587.3-.33.6-.661.892-1a.624.624,0,0,1,.05-.054c.016-.021.033-.037.045-.054h0a64.82,64.82,0,0,0-12.916-96.227Z" transform="translate(-401.801 -90.564)"/>
    <g id="Group_518" data-name="Group 518" class="cls-12" transform="translate(192.317 27.274)">
      <path id="Path_518" data-name="Path 518" d="M794.562,118.217a32.462,32.462,0,0,0,3.679,8.393,44.684,44.684,0,0,1-7.2-7.868Q792.788,118.411,794.562,118.217Z" transform="translate(-709.697 -118.217)"/>
      <path id="Path_519" data-name="Path 519" d="M689.886,181.47a46.141,46.141,0,0,0-8.52,5.989,46.972,46.972,0,0,0,9.421-17.864c.022-.079.044-.158.065-.237l.061-.224A45.92,45.92,0,0,1,703.129,148.5l.458-.446.323.552A44.9,44.9,0,0,0,710.279,157,44.757,44.757,0,0,1,689.886,181.47Z" transform="translate(-645.325 -135.73)"/>
      <path id="Path_520" data-name="Path 520" d="M749.446,139.88l-.061.224c-.021.079-.043.158-.065.237-.121.435-.249.866-.381,1.3a47.859,47.859,0,0,1-2.735-10.5l-.048-.3.251-.179a46.326,46.326,0,0,1,10.161-5.524,46.025,46.025,0,0,0-7.121,14.749Z" transform="translate(-683.354 -122.275)"/>
      <path id="Path_521" data-name="Path 521" d="M618.167,259.674a41.546,41.546,0,0,0,7.55-5.3,45.909,45.909,0,0,0,15.446,71.53l.209.1.208-.094a44.041,44.041,0,0,1,10.887-3.306,31.464,31.464,0,0,0-6.506,4.417l-.668.578.838.277c.724.239,1.447.459,2.151.655a46.353,46.353,0,0,0,12.7,1.7c19.5-.125,39.144,4.383,58.4,13.4a65.6,65.6,0,0,0,10.239,3.784,64.549,64.549,0,0,0,45.89-4.305,64.9,64.9,0,0,1-66.394,20.1,65.6,65.6,0,0,1-10.239-3.784c-19.253-9.014-38.9-13.522-58.4-13.4a46.354,46.354,0,0,1-12.7-1.7c-.7-.2-1.427-.415-2.151-.655l-.838-.277.668-.578a31.464,31.464,0,0,1,6.506-4.417,44.043,44.043,0,0,0-10.887,3.306l-.208.094-.209-.1a45.931,45.931,0,0,1-2.491-82.029Z" transform="translate(-594.109 -198.135)"/>
    </g>
  </g>
</svg>
