<svg version="1.2" baseProfile="tiny-ps" xmlns="http://www.w3.org/2000/svg" viewBox="0 0 16 16" width="16" height="16">
	<title>Layer</title>
	<style>
		tspan { white-space:pre }
		.s0 { fill: #7e84a3 } 
	</style>
	<path id="Layer" fill-rule="evenodd" class="s0" d="m11.74 10.34c0 0 0 0 0 0c0 0 0 0 0 0v0zm0 0c0.01 0.01 0.02 0.02 0.03 0.02c0.01 0.01 0.02 0.02 0.03 0.02c0.01 0.01 0.02 0.02 0.03 0.03c0.01 0.01 0.02 0.02 0.03 0.03l3.85 3.85c0.19 0.19 0.29 0.44 0.29 0.71c0 0.27-0.11 0.52-0.29 0.71c-0.19 0.19-0.44 0.29-0.71 0.29c-0.27 0-0.52-0.11-0.71-0.29l-3.85-3.85c-0.04-0.04-0.07-0.07-0.1-0.11c-2.74 2.01-6.56 1.57-8.78-1.01c-2.21-2.58-2.07-6.43 0.33-8.83c2.4-2.4 6.25-2.55 8.83-0.34c2.58 2.21 3.02 6.04 1.01 8.78zm-1.4 1.4h0c0 0 0 0 0 0c0 0 0 0 0 0zm1.66-5.24c0-1.46-0.58-2.86-1.61-3.89c-1.03-1.03-2.43-1.61-3.89-1.61c-1.46 0-2.86 0.58-3.89 1.61c-1.03 1.03-1.61 2.43-1.61 3.89c0 1.46 0.58 2.86 1.61 3.89c1.03 1.03 2.43 1.61 3.89 1.61c1.46 0 2.86-0.58 3.89-1.61c1.03-1.03 1.61-2.43 1.61-3.89z" />
</svg>