<svg xmlns="http://www.w3.org/2000/svg" width="70.703" height="71" viewBox="0 0 70.703 71">
  <defs>
    <style>
      .cls-1 {
        fill: #373435;
      }

      .cls-1, .cls-2 {
        fill-rule: evenodd;
      }

      .cls-2 {
        fill: #ff5722;
      }
    </style>
  </defs>
  <g id="Layer_x0020_1" transform="translate(0.01 -0.011)">
    <g id="_1779819378576" transform="translate(-0.01 0.011)">
      <path id="Path_528" data-name="Path 528" class="cls-1" d="M64.18,81.6V97.1c0,2.479,4.261.09,6.116-.707L96.847,85.116a10.648,10.648,0,0,0,3.081-1.572,5.747,5.747,0,0,0,2.059-2.9l.028-18.89c-2.671,2.978-7.952,5.135-8.789,5.475L67.9,77.874C66.27,78.509,64.18,79.374,64.18,81.6Z" transform="translate(-47.741 -45.939)"/>
      <path id="Path_529" data-name="Path 529" class="cls-2" d="M62.548,1.87c0,16.111-1.552,16.206,5.493,19,11.368,4.518,4.953,4.359,18.426-.976,2.243-.889,9.57-3.291,9.57-5.314,0-1.619-1.191-1.67-3.26-2.63L72.6,3.289C67.88,1.322,62.546-2.158,62.546,1.873Z" transform="translate(-46.42 -0.011)"/>
      <path id="Path_530" data-name="Path 530" class="cls-2" d="M25.73,225.668a23.563,23.563,0,0,0,.62-3.1c1.242,0,3.411-.246,3.411.93a2.12,2.12,0,0,1-1.26,2.154C27.646,226.008,27.128,225.668,25.73,225.668Zm-4.651,8.062h2.172c2.243,0,.138-4.651,2.791-4.651,1.818,0,.873,4.651,2.791,4.651,3.949,0,3.6.259,2.681-2.359-.4-1.137-.684-2.292-1.129-3.222,5.3-2.8,3.993-8.682-1.224-8.7-1.964-.008-3.941.018-5.908.018L20.8,230.661c-.274,1.321-1.222,3.071.282,3.071Zm-19.537-9.3H5.263l.356-1.852a24.5,24.5,0,0,1,4.6,3.711,35.011,35.011,0,0,1-5.893,4.341l.31-1.862H.61c-.156,1.867-.62,2.515-.62,4.961,4.446,0,7.865.635,10.933-2.09,4.938-4.384,3.419-12.175-3.491-12.175-5.457,0-4.768-.435-5.252,2.19-.2,1.1-.407,1.777-.638,2.773Zm32.25,9.3c8.958,0,9.537.891,10.226-1.611.686-2.487-.254-1.8-6.5-1.8a11.285,11.285,0,0,1,.62-2.172,21.647,21.647,0,0,0,5.27-.31c0-1.56.279-1.388.31-2.791H38.75a17.624,17.624,0,0,0,.31-2.172c6.425,0,6.856.9,7.242-2.433.161-1.378-.6-1.014-2.579-.989-2.584.036-5.181.01-7.765.01l-2.423,11.225c-.295,1.135-1.2,3.04.251,3.04Zm11.473-5.893c0,3.985,3.972,8.951,10.853,4.341a11.4,11.4,0,0,1-1.239-2.791c-.776.182-2.435.93-2.791.93-5.1,0-3.045-7.442,1.239-7.442,1.339,0,1.741.65,2.791.93l2.172-2.791c-.72-.481-1.944-1.862-4.031-1.862a8.68,8.68,0,0,0-8.994,8.684Zm13.645-4.961h3.411l-1.636,8.618c-.563,2.42-1.083,2.236,2.569,2.236,1.117,0,1.032-1.165,1.222-2.19.2-1.094.4-1.8.612-2.8.41-1.959.817-3.944,1.265-5.867h3.721a12.406,12.406,0,0,0,.62-3.411c-11.655,0-11.783-1.132-11.783,3.411ZM14.874,233.729c3.578,0,2.9.282,3.6-2.909l1.547-7.447a20.6,20.6,0,0,0,.743-3.908H17.043c-.161.691-.312.937-.481,1.688l-1.972,9.506c-.274,1.321-1.222,3.071.282,3.071Z" transform="translate(0.01 -163.03)"/>
    </g>
  </g>
</svg>
